<mxfile host="Electron" agent="Mozilla/5.0 (Windows NT 10.0; Win64; x64) AppleWebKit/537.36 (KHTML, like Gecko) draw.io/24.7.8 Chrome/128.0.6613.36 Electron/32.0.1 Safari/537.36" version="24.7.8">
  <diagram name="Seite-1" id="yKIF0gyPea6XclbkqL5s">
    <mxGraphModel dx="2307" dy="820" grid="1" gridSize="10" guides="1" tooltips="1" connect="1" arrows="1" fold="1" page="1" pageScale="1" pageWidth="827" pageHeight="1169" math="0" shadow="0">
      <root>
        <mxCell id="0" />
        <mxCell id="1" parent="0" />
        <mxCell id="57ipUzn8-yiYDWyyxtMg-46" value="&lt;font style=&quot;font-size: 19px;&quot;&gt;Zum Ablesen von Datum und Uhrzeit musst du die BinÃ¤rzahlen in Dezimalzahlen umwandeln.&lt;/font&gt;" style="text;html=1;align=center;verticalAlign=middle;whiteSpace=wrap;rounded=0;" vertex="1" parent="1">
          <mxGeometry x="-16" y="516" width="860" height="30" as="geometry" />
        </mxCell>
        <mxCell id="57ipUzn8-yiYDWyyxtMg-47" value="" style="group" vertex="1" connectable="0" parent="1">
          <mxGeometry x="210" y="169.99999999999997" width="408" height="321" as="geometry" />
        </mxCell>
        <mxCell id="8Yk4AXUet44jnyZRvVOJ-1" value="" style="rounded=0;whiteSpace=wrap;html=1;" parent="57ipUzn8-yiYDWyyxtMg-47" vertex="1">
          <mxGeometry x="78" y="35.10000000000002" width="257.8735" height="255.905" as="geometry" />
        </mxCell>
        <mxCell id="57ipUzn8-yiYDWyyxtMg-1" value="1" style="text;html=1;align=center;verticalAlign=middle;whiteSpace=wrap;rounded=0;" vertex="1" parent="57ipUzn8-yiYDWyyxtMg-47">
          <mxGeometry x="295" y="291" width="60" height="30" as="geometry" />
        </mxCell>
        <mxCell id="57ipUzn8-yiYDWyyxtMg-2" value="2" style="text;html=1;align=center;verticalAlign=middle;whiteSpace=wrap;rounded=0;" vertex="1" parent="57ipUzn8-yiYDWyyxtMg-47">
          <mxGeometry x="261" y="291" width="60" height="30" as="geometry" />
        </mxCell>
        <mxCell id="57ipUzn8-yiYDWyyxtMg-3" value="4" style="text;html=1;align=center;verticalAlign=middle;whiteSpace=wrap;rounded=0;" vertex="1" parent="57ipUzn8-yiYDWyyxtMg-47">
          <mxGeometry x="228" y="291" width="60" height="30" as="geometry" />
        </mxCell>
        <mxCell id="57ipUzn8-yiYDWyyxtMg-4" value="8" style="text;html=1;align=center;verticalAlign=middle;whiteSpace=wrap;rounded=0;" vertex="1" parent="57ipUzn8-yiYDWyyxtMg-47">
          <mxGeometry x="194" y="291" width="60" height="30" as="geometry" />
        </mxCell>
        <mxCell id="57ipUzn8-yiYDWyyxtMg-5" value="16" style="text;html=1;align=center;verticalAlign=middle;whiteSpace=wrap;rounded=0;" vertex="1" parent="57ipUzn8-yiYDWyyxtMg-47">
          <mxGeometry x="161" y="291" width="60" height="30" as="geometry" />
        </mxCell>
        <mxCell id="57ipUzn8-yiYDWyyxtMg-6" value="32" style="text;html=1;align=center;verticalAlign=middle;whiteSpace=wrap;rounded=0;" vertex="1" parent="57ipUzn8-yiYDWyyxtMg-47">
          <mxGeometry x="127" y="291" width="60" height="30" as="geometry" />
        </mxCell>
        <mxCell id="57ipUzn8-yiYDWyyxtMg-7" value="64" style="text;html=1;align=center;verticalAlign=middle;whiteSpace=wrap;rounded=0;" vertex="1" parent="57ipUzn8-yiYDWyyxtMg-47">
          <mxGeometry x="94" y="291" width="60" height="30" as="geometry" />
        </mxCell>
        <mxCell id="57ipUzn8-yiYDWyyxtMg-8" value="128" style="text;html=1;align=center;verticalAlign=middle;whiteSpace=wrap;rounded=0;" vertex="1" parent="57ipUzn8-yiYDWyyxtMg-47">
          <mxGeometry x="60" y="291" width="60" height="30" as="geometry" />
        </mxCell>
        <mxCell id="57ipUzn8-yiYDWyyxtMg-27" value="" style="group;align=left;" vertex="1" connectable="0" parent="57ipUzn8-yiYDWyyxtMg-47">
          <mxGeometry x="348" y="35.10000000000002" width="60" height="255.89999999999998" as="geometry" />
        </mxCell>
        <mxCell id="57ipUzn8-yiYDWyyxtMg-36" value="" style="group;align=left;" vertex="1" connectable="0" parent="57ipUzn8-yiYDWyyxtMg-27">
          <mxGeometry width="60" height="255.89999999999998" as="geometry" />
        </mxCell>
        <mxCell id="57ipUzn8-yiYDWyyxtMg-28" value="Monat" style="text;html=1;align=left;verticalAlign=middle;whiteSpace=wrap;rounded=0;" vertex="1" parent="57ipUzn8-yiYDWyyxtMg-36">
          <mxGeometry y="32" width="60" height="30" as="geometry" />
        </mxCell>
        <mxCell id="57ipUzn8-yiYDWyyxtMg-29" value="Tag" style="text;html=1;align=left;verticalAlign=middle;whiteSpace=wrap;rounded=0;" vertex="1" parent="57ipUzn8-yiYDWyyxtMg-36">
          <mxGeometry width="60" height="30" as="geometry" />
        </mxCell>
        <mxCell id="57ipUzn8-yiYDWyyxtMg-30" value="Jahr" style="text;html=1;align=left;verticalAlign=middle;whiteSpace=wrap;rounded=0;" vertex="1" parent="57ipUzn8-yiYDWyyxtMg-36">
          <mxGeometry y="65" width="60" height="30" as="geometry" />
        </mxCell>
        <mxCell id="57ipUzn8-yiYDWyyxtMg-31" value="Stunde" style="text;html=1;align=left;verticalAlign=middle;whiteSpace=wrap;rounded=0;" vertex="1" parent="57ipUzn8-yiYDWyyxtMg-36">
          <mxGeometry y="161" width="60" height="30" as="geometry" />
        </mxCell>
        <mxCell id="57ipUzn8-yiYDWyyxtMg-32" value="Minute" style="text;html=1;align=left;verticalAlign=middle;whiteSpace=wrap;rounded=0;" vertex="1" parent="57ipUzn8-yiYDWyyxtMg-36">
          <mxGeometry y="194" width="60" height="30" as="geometry" />
        </mxCell>
        <mxCell id="57ipUzn8-yiYDWyyxtMg-33" value="Sekunde" style="text;html=1;align=left;verticalAlign=middle;whiteSpace=wrap;rounded=0;" vertex="1" parent="57ipUzn8-yiYDWyyxtMg-36">
          <mxGeometry y="225.89999999999998" width="60" height="30" as="geometry" />
        </mxCell>
        <mxCell id="57ipUzn8-yiYDWyyxtMg-34" value="&amp;nbsp; &amp;nbsp;&amp;nbsp;" style="text;html=1;align=left;verticalAlign=middle;resizable=0;points=[];autosize=1;strokeColor=none;fillColor=none;" vertex="1" parent="57ipUzn8-yiYDWyyxtMg-36">
          <mxGeometry x="20" y="97" width="40" height="30" as="geometry" />
        </mxCell>
        <mxCell id="57ipUzn8-yiYDWyyxtMg-35" value="&amp;nbsp; &amp;nbsp;&amp;nbsp;" style="text;html=1;align=left;verticalAlign=middle;resizable=0;points=[];autosize=1;strokeColor=none;fillColor=none;" vertex="1" parent="57ipUzn8-yiYDWyyxtMg-36">
          <mxGeometry x="20" y="129" width="40" height="30" as="geometry" />
        </mxCell>
        <mxCell id="57ipUzn8-yiYDWyyxtMg-37" value="" style="group" vertex="1" connectable="0" parent="57ipUzn8-yiYDWyyxtMg-47">
          <mxGeometry y="35.10000000000002" width="60" height="255.89999999999998" as="geometry" />
        </mxCell>
        <mxCell id="57ipUzn8-yiYDWyyxtMg-10" value="Monat" style="text;html=1;align=right;verticalAlign=middle;whiteSpace=wrap;rounded=0;container=0;" vertex="1" parent="57ipUzn8-yiYDWyyxtMg-37">
          <mxGeometry y="32" width="60" height="30" as="geometry" />
        </mxCell>
        <mxCell id="57ipUzn8-yiYDWyyxtMg-11" value="Tag" style="text;html=1;align=right;verticalAlign=middle;whiteSpace=wrap;rounded=0;container=0;" vertex="1" parent="57ipUzn8-yiYDWyyxtMg-37">
          <mxGeometry width="60" height="30" as="geometry" />
        </mxCell>
        <mxCell id="57ipUzn8-yiYDWyyxtMg-12" value="Jahr" style="text;html=1;align=right;verticalAlign=middle;whiteSpace=wrap;rounded=0;container=0;" vertex="1" parent="57ipUzn8-yiYDWyyxtMg-37">
          <mxGeometry y="65" width="60" height="30" as="geometry" />
        </mxCell>
        <mxCell id="57ipUzn8-yiYDWyyxtMg-13" value="Stunde" style="text;html=1;align=right;verticalAlign=middle;whiteSpace=wrap;rounded=0;container=0;" vertex="1" parent="57ipUzn8-yiYDWyyxtMg-37">
          <mxGeometry y="161" width="60" height="30" as="geometry" />
        </mxCell>
        <mxCell id="57ipUzn8-yiYDWyyxtMg-14" value="Minute" style="text;html=1;align=right;verticalAlign=middle;whiteSpace=wrap;rounded=0;container=0;" vertex="1" parent="57ipUzn8-yiYDWyyxtMg-37">
          <mxGeometry y="194" width="60" height="30" as="geometry" />
        </mxCell>
        <mxCell id="57ipUzn8-yiYDWyyxtMg-15" value="Sekunde" style="text;html=1;align=right;verticalAlign=middle;whiteSpace=wrap;rounded=0;container=0;" vertex="1" parent="57ipUzn8-yiYDWyyxtMg-37">
          <mxGeometry y="225.89999999999998" width="60" height="30" as="geometry" />
        </mxCell>
        <mxCell id="57ipUzn8-yiYDWyyxtMg-16" value="&amp;nbsp; &amp;nbsp;&amp;nbsp;" style="text;html=1;align=right;verticalAlign=middle;resizable=0;points=[];autosize=1;strokeColor=none;fillColor=none;container=0;" vertex="1" parent="57ipUzn8-yiYDWyyxtMg-37">
          <mxGeometry x="20" y="97" width="40" height="30" as="geometry" />
        </mxCell>
        <mxCell id="57ipUzn8-yiYDWyyxtMg-17" value="&amp;nbsp; &amp;nbsp;&amp;nbsp;" style="text;html=1;align=right;verticalAlign=middle;resizable=0;points=[];autosize=1;strokeColor=none;fillColor=none;container=0;" vertex="1" parent="57ipUzn8-yiYDWyyxtMg-37">
          <mxGeometry x="20" y="129" width="40" height="30" as="geometry" />
        </mxCell>
        <mxCell id="57ipUzn8-yiYDWyyxtMg-38" value="1" style="text;html=1;align=center;verticalAlign=middle;whiteSpace=wrap;rounded=0;" vertex="1" parent="57ipUzn8-yiYDWyyxtMg-47">
          <mxGeometry x="297" width="60" height="30" as="geometry" />
        </mxCell>
        <mxCell id="57ipUzn8-yiYDWyyxtMg-39" value="2" style="text;html=1;align=center;verticalAlign=middle;whiteSpace=wrap;rounded=0;" vertex="1" parent="57ipUzn8-yiYDWyyxtMg-47">
          <mxGeometry x="263" width="60" height="30" as="geometry" />
        </mxCell>
        <mxCell id="57ipUzn8-yiYDWyyxtMg-40" value="4" style="text;html=1;align=center;verticalAlign=middle;whiteSpace=wrap;rounded=0;" vertex="1" parent="57ipUzn8-yiYDWyyxtMg-47">
          <mxGeometry x="230" width="60" height="30" as="geometry" />
        </mxCell>
        <mxCell id="57ipUzn8-yiYDWyyxtMg-41" value="8" style="text;html=1;align=center;verticalAlign=middle;whiteSpace=wrap;rounded=0;" vertex="1" parent="57ipUzn8-yiYDWyyxtMg-47">
          <mxGeometry x="196" width="60" height="30" as="geometry" />
        </mxCell>
        <mxCell id="57ipUzn8-yiYDWyyxtMg-42" value="16" style="text;html=1;align=center;verticalAlign=middle;whiteSpace=wrap;rounded=0;" vertex="1" parent="57ipUzn8-yiYDWyyxtMg-47">
          <mxGeometry x="163" width="60" height="30" as="geometry" />
        </mxCell>
        <mxCell id="57ipUzn8-yiYDWyyxtMg-43" value="32" style="text;html=1;align=center;verticalAlign=middle;whiteSpace=wrap;rounded=0;" vertex="1" parent="57ipUzn8-yiYDWyyxtMg-47">
          <mxGeometry x="129" width="60" height="30" as="geometry" />
        </mxCell>
        <mxCell id="57ipUzn8-yiYDWyyxtMg-44" value="64" style="text;html=1;align=center;verticalAlign=middle;whiteSpace=wrap;rounded=0;" vertex="1" parent="57ipUzn8-yiYDWyyxtMg-47">
          <mxGeometry x="96" width="60" height="30" as="geometry" />
        </mxCell>
        <mxCell id="57ipUzn8-yiYDWyyxtMg-45" value="128" style="text;html=1;align=center;verticalAlign=middle;whiteSpace=wrap;rounded=0;" vertex="1" parent="57ipUzn8-yiYDWyyxtMg-47">
          <mxGeometry x="62" width="60" height="30" as="geometry" />
        </mxCell>
        <mxCell id="57ipUzn8-yiYDWyyxtMg-48" value="&lt;font style=&quot;font-size: 22px;&quot;&gt;Dieses Display stellt das aktuelle Datum und die Uhrzeit im BinÃ¤rformat dar.&lt;/font&gt;" style="text;html=1;align=left;verticalAlign=middle;whiteSpace=wrap;rounded=0;" vertex="1" parent="1">
          <mxGeometry x="50" y="120" width="760" height="30" as="geometry" />
        </mxCell>
        <mxCell id="57ipUzn8-yiYDWyyxtMg-59" value="&lt;font style=&quot;font-size: 30px;&quot;&gt;&lt;b&gt;Die BinÃ¤ruhr&lt;/b&gt;&lt;/font&gt;" style="text;html=1;align=center;verticalAlign=middle;whiteSpace=wrap;rounded=0;" vertex="1" parent="1">
          <mxGeometry x="245.52999999999997" y="60" width="336.94" height="30" as="geometry" />
        </mxCell>
        <mxCell id="57ipUzn8-yiYDWyyxtMg-106" value="&lt;font size=&quot;1&quot; style=&quot;&quot;&gt;&lt;b style=&quot;font-size: 21px;&quot;&gt;Technische Details&lt;/b&gt;&lt;/font&gt;" style="text;html=1;align=center;verticalAlign=middle;whiteSpace=wrap;rounded=0;" vertex="1" parent="1">
          <mxGeometry x="9" y="882" width="860" height="30" as="geometry" />
        </mxCell>
        <mxCell id="57ipUzn8-yiYDWyyxtMg-107" value="&lt;ol style=&quot;font-size: 20px; line-height: 160%;&quot;&gt;&lt;li&gt;&lt;span style=&quot;&quot;&gt;Der Mikrocontroller ESP32 verbindet sich Ã¼ber das Wlan mit dem Internet.&lt;/span&gt;&lt;/li&gt;&lt;li&gt;&lt;span style=&quot;&quot;&gt;Jede Sekunde lÃ¤dt er von einem Zeitserver einen Zeitwert herunter .&lt;br&gt;Dieser entspricht der Zahl der Sekunden, die seit dem 01.01.1970 vergangen sind.&lt;/span&gt;&lt;/li&gt;&lt;li&gt;&lt;span style=&quot;&quot;&gt;Aus diesem Wert berechnet er das aktuelle Datum und die aktuelle Uhrzeit.&lt;/span&gt;&lt;/li&gt;&lt;li&gt;Das Neopixel-Display kann diese Werte binÃ¤r darstellen, da die Farbe von jedem&lt;br&gt;Pixel einzeln festgelegt werden kann.&lt;/li&gt;&lt;/ol&gt;" style="text;html=1;align=left;verticalAlign=middle;whiteSpace=wrap;rounded=0;" vertex="1" parent="1">
          <mxGeometry x="9" y="1002" width="860" height="40" as="geometry" />
        </mxCell>
        <mxCell id="57ipUzn8-yiYDWyyxtMg-139" value="" style="group" vertex="1" connectable="0" parent="1">
          <mxGeometry x="102" y="576" width="623" height="274.84000000000003" as="geometry" />
        </mxCell>
        <mxCell id="57ipUzn8-yiYDWyyxtMg-60" value="" style="ellipse;whiteSpace=wrap;html=1;aspect=fixed;fillColor=#f8cecc;strokeColor=#b85450;" vertex="1" parent="57ipUzn8-yiYDWyyxtMg-139">
          <mxGeometry x="185" y="164.99879999999996" width="19.685" height="19.69" as="geometry" />
        </mxCell>
        <mxCell id="57ipUzn8-yiYDWyyxtMg-61" value="1" style="text;html=1;align=center;verticalAlign=middle;whiteSpace=wrap;rounded=0;" vertex="1" parent="57ipUzn8-yiYDWyyxtMg-139">
          <mxGeometry x="235" width="60" height="30" as="geometry" />
        </mxCell>
        <mxCell id="57ipUzn8-yiYDWyyxtMg-62" value="2" style="text;html=1;align=center;verticalAlign=middle;whiteSpace=wrap;rounded=0;" vertex="1" parent="57ipUzn8-yiYDWyyxtMg-139">
          <mxGeometry x="201" width="60" height="30" as="geometry" />
        </mxCell>
        <mxCell id="57ipUzn8-yiYDWyyxtMg-63" value="4" style="text;html=1;align=center;verticalAlign=middle;whiteSpace=wrap;rounded=0;" vertex="1" parent="57ipUzn8-yiYDWyyxtMg-139">
          <mxGeometry x="168" width="60" height="30" as="geometry" />
        </mxCell>
        <mxCell id="57ipUzn8-yiYDWyyxtMg-64" value="8" style="text;html=1;align=center;verticalAlign=middle;whiteSpace=wrap;rounded=0;" vertex="1" parent="57ipUzn8-yiYDWyyxtMg-139">
          <mxGeometry x="134" width="60" height="30" as="geometry" />
        </mxCell>
        <mxCell id="57ipUzn8-yiYDWyyxtMg-65" value="16" style="text;html=1;align=center;verticalAlign=middle;whiteSpace=wrap;rounded=0;" vertex="1" parent="57ipUzn8-yiYDWyyxtMg-139">
          <mxGeometry x="101" width="60" height="30" as="geometry" />
        </mxCell>
        <mxCell id="57ipUzn8-yiYDWyyxtMg-66" value="32" style="text;html=1;align=center;verticalAlign=middle;whiteSpace=wrap;rounded=0;" vertex="1" parent="57ipUzn8-yiYDWyyxtMg-139">
          <mxGeometry x="67" width="60" height="30" as="geometry" />
        </mxCell>
        <mxCell id="57ipUzn8-yiYDWyyxtMg-67" value="64" style="text;html=1;align=center;verticalAlign=middle;whiteSpace=wrap;rounded=0;" vertex="1" parent="57ipUzn8-yiYDWyyxtMg-139">
          <mxGeometry x="34" width="60" height="30" as="geometry" />
        </mxCell>
        <mxCell id="57ipUzn8-yiYDWyyxtMg-68" value="128" style="text;html=1;align=center;verticalAlign=middle;whiteSpace=wrap;rounded=0;" vertex="1" parent="57ipUzn8-yiYDWyyxtMg-139">
          <mxGeometry width="60" height="30" as="geometry" />
        </mxCell>
        <mxCell id="57ipUzn8-yiYDWyyxtMg-69" value="" style="ellipse;whiteSpace=wrap;html=1;aspect=fixed;fillColor=#f8cecc;strokeColor=#b85450;" vertex="1" parent="57ipUzn8-yiYDWyyxtMg-139">
          <mxGeometry x="52" y="164.99879999999996" width="19.685" height="19.69" as="geometry" />
        </mxCell>
        <mxCell id="57ipUzn8-yiYDWyyxtMg-70" value="" style="ellipse;whiteSpace=wrap;html=1;aspect=fixed;fillColor=#00FF00;strokeColor=#82b366;" vertex="1" parent="57ipUzn8-yiYDWyyxtMg-139">
          <mxGeometry x="219" y="164.99879999999996" width="19.685" height="19.69" as="geometry" />
        </mxCell>
        <mxCell id="57ipUzn8-yiYDWyyxtMg-71" value="" style="ellipse;whiteSpace=wrap;html=1;aspect=fixed;fillColor=#f8cecc;strokeColor=#b85450;" vertex="1" parent="57ipUzn8-yiYDWyyxtMg-139">
          <mxGeometry x="85" y="164.99879999999996" width="19.685" height="19.69" as="geometry" />
        </mxCell>
        <mxCell id="57ipUzn8-yiYDWyyxtMg-72" value="" style="ellipse;whiteSpace=wrap;html=1;aspect=fixed;fillColor=#f8cecc;strokeColor=#b85450;" vertex="1" parent="57ipUzn8-yiYDWyyxtMg-139">
          <mxGeometry x="252.255" y="164.99879999999996" width="19.685" height="19.69" as="geometry" />
        </mxCell>
        <mxCell id="57ipUzn8-yiYDWyyxtMg-73" value="" style="ellipse;whiteSpace=wrap;html=1;aspect=fixed;fillColor=#f8cecc;strokeColor=#b85450;" vertex="1" parent="57ipUzn8-yiYDWyyxtMg-139">
          <mxGeometry x="119" y="164.99879999999996" width="19.685" height="19.69" as="geometry" />
        </mxCell>
        <mxCell id="57ipUzn8-yiYDWyyxtMg-74" value="" style="ellipse;whiteSpace=wrap;html=1;aspect=fixed;fillColor=#f8cecc;strokeColor=#b85450;" vertex="1" parent="57ipUzn8-yiYDWyyxtMg-139">
          <mxGeometry x="18.254999999999995" y="164.99879999999996" width="19.685" height="19.69" as="geometry" />
        </mxCell>
        <mxCell id="57ipUzn8-yiYDWyyxtMg-75" value="" style="ellipse;whiteSpace=wrap;html=1;aspect=fixed;fillColor=#00FF00;strokeColor=#82b366;" vertex="1" parent="57ipUzn8-yiYDWyyxtMg-139">
          <mxGeometry x="152" y="164.99879999999996" width="19.685" height="19.69" as="geometry" />
        </mxCell>
        <mxCell id="57ipUzn8-yiYDWyyxtMg-77" value="&lt;font style=&quot;font-size: 19px;&quot;&gt;8+2 = 10&lt;/font&gt;" style="text;html=1;align=left;verticalAlign=middle;resizable=0;points=[];autosize=1;strokeColor=none;fillColor=none;" vertex="1" parent="57ipUzn8-yiYDWyyxtMg-139">
          <mxGeometry x="302.63" y="154.84000000000003" width="100" height="40" as="geometry" />
        </mxCell>
        <mxCell id="57ipUzn8-yiYDWyyxtMg-78" value="" style="ellipse;whiteSpace=wrap;html=1;aspect=fixed;fillColor=#f8cecc;strokeColor=#b85450;" vertex="1" parent="57ipUzn8-yiYDWyyxtMg-139">
          <mxGeometry x="185" y="204.99879999999996" width="19.685" height="19.69" as="geometry" />
        </mxCell>
        <mxCell id="57ipUzn8-yiYDWyyxtMg-79" value="" style="ellipse;whiteSpace=wrap;html=1;aspect=fixed;fillColor=#f8cecc;strokeColor=#b85450;" vertex="1" parent="57ipUzn8-yiYDWyyxtMg-139">
          <mxGeometry x="52" y="204.99879999999996" width="19.685" height="19.69" as="geometry" />
        </mxCell>
        <mxCell id="57ipUzn8-yiYDWyyxtMg-80" value="" style="ellipse;whiteSpace=wrap;html=1;aspect=fixed;fillColor=#00FF00;strokeColor=#82b366;" vertex="1" parent="57ipUzn8-yiYDWyyxtMg-139">
          <mxGeometry x="219" y="204.99879999999996" width="19.685" height="19.69" as="geometry" />
        </mxCell>
        <mxCell id="57ipUzn8-yiYDWyyxtMg-81" value="" style="ellipse;whiteSpace=wrap;html=1;aspect=fixed;fillColor=#f8cecc;strokeColor=#b85450;" vertex="1" parent="57ipUzn8-yiYDWyyxtMg-139">
          <mxGeometry x="85" y="204.99879999999996" width="19.685" height="19.69" as="geometry" />
        </mxCell>
        <mxCell id="57ipUzn8-yiYDWyyxtMg-82" value="" style="ellipse;whiteSpace=wrap;html=1;aspect=fixed;fillColor=#00FF00;strokeColor=#82b366;" vertex="1" parent="57ipUzn8-yiYDWyyxtMg-139">
          <mxGeometry x="252.255" y="204.99879999999996" width="19.685" height="19.69" as="geometry" />
        </mxCell>
        <mxCell id="57ipUzn8-yiYDWyyxtMg-83" value="" style="ellipse;whiteSpace=wrap;html=1;aspect=fixed;fillColor=#00FF00;strokeColor=#82b366;" vertex="1" parent="57ipUzn8-yiYDWyyxtMg-139">
          <mxGeometry x="119" y="204.99879999999996" width="19.685" height="19.69" as="geometry" />
        </mxCell>
        <mxCell id="57ipUzn8-yiYDWyyxtMg-84" value="" style="ellipse;whiteSpace=wrap;html=1;aspect=fixed;fillColor=#f8cecc;strokeColor=#b85450;" vertex="1" parent="57ipUzn8-yiYDWyyxtMg-139">
          <mxGeometry x="18.254999999999995" y="204.99879999999996" width="19.685" height="19.69" as="geometry" />
        </mxCell>
        <mxCell id="57ipUzn8-yiYDWyyxtMg-85" value="" style="ellipse;whiteSpace=wrap;html=1;aspect=fixed;fillColor=#00FF00;strokeColor=#82b366;" vertex="1" parent="57ipUzn8-yiYDWyyxtMg-139">
          <mxGeometry x="152" y="204.99879999999996" width="19.685" height="19.69" as="geometry" />
        </mxCell>
        <mxCell id="57ipUzn8-yiYDWyyxtMg-86" value="&lt;span style=&quot;font-size: 19px;&quot;&gt;16+8+2+1=27&lt;/span&gt;" style="text;html=1;align=left;verticalAlign=middle;resizable=0;points=[];autosize=1;strokeColor=none;fillColor=none;" vertex="1" parent="57ipUzn8-yiYDWyyxtMg-139">
          <mxGeometry x="302.63" y="194.84000000000003" width="140" height="40" as="geometry" />
        </mxCell>
        <mxCell id="57ipUzn8-yiYDWyyxtMg-87" value="" style="ellipse;whiteSpace=wrap;html=1;aspect=fixed;fillColor=#FFFF00;strokeColor=#d6b656;" vertex="1" parent="57ipUzn8-yiYDWyyxtMg-139">
          <mxGeometry x="185.37" y="76.99879999999996" width="19.685" height="19.69" as="geometry" />
        </mxCell>
        <mxCell id="57ipUzn8-yiYDWyyxtMg-88" value="" style="ellipse;whiteSpace=wrap;html=1;aspect=fixed;fillColor=#dae8fc;strokeColor=#6c8ebf;" vertex="1" parent="57ipUzn8-yiYDWyyxtMg-139">
          <mxGeometry x="52.370000000000005" y="76.99879999999996" width="19.685" height="19.69" as="geometry" />
        </mxCell>
        <mxCell id="57ipUzn8-yiYDWyyxtMg-89" value="" style="ellipse;whiteSpace=wrap;html=1;aspect=fixed;fillColor=#dae8fc;strokeColor=#6c8ebf;" vertex="1" parent="57ipUzn8-yiYDWyyxtMg-139">
          <mxGeometry x="219.37" y="76.99879999999996" width="19.685" height="19.69" as="geometry" />
        </mxCell>
        <mxCell id="57ipUzn8-yiYDWyyxtMg-90" value="" style="ellipse;whiteSpace=wrap;html=1;aspect=fixed;fillColor=#dae8fc;strokeColor=#6c8ebf;" vertex="1" parent="57ipUzn8-yiYDWyyxtMg-139">
          <mxGeometry x="85.37" y="76.99879999999996" width="19.685" height="19.69" as="geometry" />
        </mxCell>
        <mxCell id="57ipUzn8-yiYDWyyxtMg-91" value="" style="ellipse;whiteSpace=wrap;html=1;aspect=fixed;fillColor=#dae8fc;strokeColor=#6c8ebf;" vertex="1" parent="57ipUzn8-yiYDWyyxtMg-139">
          <mxGeometry x="252.625" y="76.99879999999996" width="19.685" height="19.69" as="geometry" />
        </mxCell>
        <mxCell id="57ipUzn8-yiYDWyyxtMg-92" value="" style="ellipse;whiteSpace=wrap;html=1;aspect=fixed;fillColor=#dae8fc;strokeColor=#6c8ebf;" vertex="1" parent="57ipUzn8-yiYDWyyxtMg-139">
          <mxGeometry x="119.37" y="76.99879999999996" width="19.685" height="19.69" as="geometry" />
        </mxCell>
        <mxCell id="57ipUzn8-yiYDWyyxtMg-93" value="" style="ellipse;whiteSpace=wrap;html=1;aspect=fixed;fillColor=#dae8fc;strokeColor=#6c8ebf;" vertex="1" parent="57ipUzn8-yiYDWyyxtMg-139">
          <mxGeometry x="18.625" y="76.99879999999996" width="19.685" height="19.69" as="geometry" />
        </mxCell>
        <mxCell id="57ipUzn8-yiYDWyyxtMg-94" value="" style="ellipse;whiteSpace=wrap;html=1;aspect=fixed;fillColor=#FFFF00;strokeColor=#d6b656;" vertex="1" parent="57ipUzn8-yiYDWyyxtMg-139">
          <mxGeometry x="152.37" y="76.99879999999996" width="19.685" height="19.69" as="geometry" />
        </mxCell>
        <mxCell id="57ipUzn8-yiYDWyyxtMg-95" value="&lt;span style=&quot;font-size: 19px;&quot;&gt;8+4 = 12&lt;/span&gt;" style="text;html=1;align=left;verticalAlign=middle;resizable=0;points=[];autosize=1;strokeColor=none;fillColor=none;" vertex="1" parent="57ipUzn8-yiYDWyyxtMg-139">
          <mxGeometry x="302.63" y="64.84000000000003" width="100" height="40" as="geometry" />
        </mxCell>
        <mxCell id="57ipUzn8-yiYDWyyxtMg-96" value="" style="ellipse;whiteSpace=wrap;html=1;aspect=fixed;fillColor=#dae8fc;strokeColor=#6c8ebf;" vertex="1" parent="57ipUzn8-yiYDWyyxtMg-139">
          <mxGeometry x="185" y="116.99879999999996" width="19.685" height="19.69" as="geometry" />
        </mxCell>
        <mxCell id="57ipUzn8-yiYDWyyxtMg-97" value="" style="ellipse;whiteSpace=wrap;html=1;aspect=fixed;fillColor=#dae8fc;strokeColor=#6c8ebf;" vertex="1" parent="57ipUzn8-yiYDWyyxtMg-139">
          <mxGeometry x="52" y="116.99879999999996" width="19.685" height="19.69" as="geometry" />
        </mxCell>
        <mxCell id="57ipUzn8-yiYDWyyxtMg-98" value="" style="ellipse;whiteSpace=wrap;html=1;aspect=fixed;fillColor=#dae8fc;strokeColor=#6c8ebf;" vertex="1" parent="57ipUzn8-yiYDWyyxtMg-139">
          <mxGeometry x="219" y="116.99879999999996" width="19.685" height="19.69" as="geometry" />
        </mxCell>
        <mxCell id="57ipUzn8-yiYDWyyxtMg-99" value="" style="ellipse;whiteSpace=wrap;html=1;aspect=fixed;fillColor=#dae8fc;strokeColor=#6c8ebf;" vertex="1" parent="57ipUzn8-yiYDWyyxtMg-139">
          <mxGeometry x="85" y="116.99879999999996" width="19.685" height="19.69" as="geometry" />
        </mxCell>
        <mxCell id="57ipUzn8-yiYDWyyxtMg-100" value="" style="ellipse;whiteSpace=wrap;html=1;aspect=fixed;fillColor=#dae8fc;strokeColor=#6c8ebf;" vertex="1" parent="57ipUzn8-yiYDWyyxtMg-139">
          <mxGeometry x="252.255" y="116.99879999999996" width="19.685" height="19.69" as="geometry" />
        </mxCell>
        <mxCell id="57ipUzn8-yiYDWyyxtMg-101" value="" style="ellipse;whiteSpace=wrap;html=1;aspect=fixed;fillColor=#FFFF00;strokeColor=#FFD966;" vertex="1" parent="57ipUzn8-yiYDWyyxtMg-139">
          <mxGeometry x="119" y="116.99879999999996" width="19.685" height="19.69" as="geometry" />
        </mxCell>
        <mxCell id="57ipUzn8-yiYDWyyxtMg-102" value="" style="ellipse;whiteSpace=wrap;html=1;aspect=fixed;fillColor=#dae8fc;strokeColor=#6c8ebf;" vertex="1" parent="57ipUzn8-yiYDWyyxtMg-139">
          <mxGeometry x="18.254999999999995" y="116.99879999999996" width="19.685" height="19.69" as="geometry" />
        </mxCell>
        <mxCell id="57ipUzn8-yiYDWyyxtMg-103" value="" style="ellipse;whiteSpace=wrap;html=1;aspect=fixed;fillColor=#FFFF00;strokeColor=#d6b656;" vertex="1" parent="57ipUzn8-yiYDWyyxtMg-139">
          <mxGeometry x="152" y="116.99879999999996" width="19.685" height="19.69" as="geometry" />
        </mxCell>
        <mxCell id="57ipUzn8-yiYDWyyxtMg-104" value="&lt;span style=&quot;font-size: 19px;&quot;&gt;16+8 = 24&lt;/span&gt;" style="text;html=1;align=left;verticalAlign=middle;resizable=0;points=[];autosize=1;strokeColor=none;fillColor=none;" vertex="1" parent="57ipUzn8-yiYDWyyxtMg-139">
          <mxGeometry x="302.63" y="104.84000000000003" width="110" height="40" as="geometry" />
        </mxCell>
        <mxCell id="57ipUzn8-yiYDWyyxtMg-116" value="" style="ellipse;whiteSpace=wrap;html=1;aspect=fixed;fillColor=#f8cecc;strokeColor=#b85450;" vertex="1" parent="57ipUzn8-yiYDWyyxtMg-139">
          <mxGeometry x="185.56" y="244.99879999999996" width="19.685" height="19.69" as="geometry" />
        </mxCell>
        <mxCell id="57ipUzn8-yiYDWyyxtMg-117" value="" style="ellipse;whiteSpace=wrap;html=1;aspect=fixed;fillColor=#f8cecc;strokeColor=#b85450;" vertex="1" parent="57ipUzn8-yiYDWyyxtMg-139">
          <mxGeometry x="52.56" y="244.99879999999996" width="19.685" height="19.69" as="geometry" />
        </mxCell>
        <mxCell id="57ipUzn8-yiYDWyyxtMg-118" value="" style="ellipse;whiteSpace=wrap;html=1;aspect=fixed;fillColor=#00FF00;strokeColor=#00CC00;" vertex="1" parent="57ipUzn8-yiYDWyyxtMg-139">
          <mxGeometry x="219.56" y="244.99879999999996" width="19.685" height="19.69" as="geometry" />
        </mxCell>
        <mxCell id="57ipUzn8-yiYDWyyxtMg-119" value="" style="ellipse;whiteSpace=wrap;html=1;aspect=fixed;fillColor=#f8cecc;strokeColor=#b85450;" vertex="1" parent="57ipUzn8-yiYDWyyxtMg-139">
          <mxGeometry x="85.56" y="244.99879999999996" width="19.685" height="19.69" as="geometry" />
        </mxCell>
        <mxCell id="57ipUzn8-yiYDWyyxtMg-120" value="" style="ellipse;whiteSpace=wrap;html=1;aspect=fixed;fillColor=#00FF00;strokeColor=#00CC00;" vertex="1" parent="57ipUzn8-yiYDWyyxtMg-139">
          <mxGeometry x="252.815" y="244.99879999999996" width="19.685" height="19.69" as="geometry" />
        </mxCell>
        <mxCell id="57ipUzn8-yiYDWyyxtMg-121" value="" style="ellipse;whiteSpace=wrap;html=1;aspect=fixed;fillColor=#f8cecc;strokeColor=#b85450;" vertex="1" parent="57ipUzn8-yiYDWyyxtMg-139">
          <mxGeometry x="119.56" y="244.99879999999996" width="19.685" height="19.69" as="geometry" />
        </mxCell>
        <mxCell id="57ipUzn8-yiYDWyyxtMg-122" value="" style="ellipse;whiteSpace=wrap;html=1;aspect=fixed;fillColor=#f8cecc;strokeColor=#b85450;" vertex="1" parent="57ipUzn8-yiYDWyyxtMg-139">
          <mxGeometry x="18.814999999999998" y="244.99879999999996" width="19.685" height="19.69" as="geometry" />
        </mxCell>
        <mxCell id="57ipUzn8-yiYDWyyxtMg-123" value="" style="ellipse;whiteSpace=wrap;html=1;aspect=fixed;fillColor=#f8cecc;strokeColor=#b85450;" vertex="1" parent="57ipUzn8-yiYDWyyxtMg-139">
          <mxGeometry x="152.56" y="244.99879999999996" width="19.685" height="19.69" as="geometry" />
        </mxCell>
        <mxCell id="57ipUzn8-yiYDWyyxtMg-124" value="&lt;span style=&quot;font-size: 19px;&quot;&gt;2+1 = 3&lt;/span&gt;" style="text;html=1;align=left;verticalAlign=middle;resizable=0;points=[];autosize=1;strokeColor=none;fillColor=none;" vertex="1" parent="57ipUzn8-yiYDWyyxtMg-139">
          <mxGeometry x="303.19" y="234.84000000000003" width="90" height="40" as="geometry" />
        </mxCell>
        <mxCell id="57ipUzn8-yiYDWyyxtMg-125" value="" style="ellipse;whiteSpace=wrap;html=1;aspect=fixed;fillColor=#FFFF00;strokeColor=#d6b656;" vertex="1" parent="57ipUzn8-yiYDWyyxtMg-139">
          <mxGeometry x="185" y="36.99879999999996" width="19.685" height="19.69" as="geometry" />
        </mxCell>
        <mxCell id="57ipUzn8-yiYDWyyxtMg-126" value="" style="ellipse;whiteSpace=wrap;html=1;aspect=fixed;fillColor=#dae8fc;strokeColor=#6c8ebf;" vertex="1" parent="57ipUzn8-yiYDWyyxtMg-139">
          <mxGeometry x="52" y="36.99879999999996" width="19.685" height="19.69" as="geometry" />
        </mxCell>
        <mxCell id="57ipUzn8-yiYDWyyxtMg-127" value="" style="ellipse;whiteSpace=wrap;html=1;aspect=fixed;fillColor=#dae8fc;strokeColor=#6c8ebf;" vertex="1" parent="57ipUzn8-yiYDWyyxtMg-139">
          <mxGeometry x="219" y="36.99879999999996" width="19.685" height="19.69" as="geometry" />
        </mxCell>
        <mxCell id="57ipUzn8-yiYDWyyxtMg-128" value="" style="ellipse;whiteSpace=wrap;html=1;aspect=fixed;fillColor=#dae8fc;strokeColor=#6c8ebf;" vertex="1" parent="57ipUzn8-yiYDWyyxtMg-139">
          <mxGeometry x="85" y="36.99879999999996" width="19.685" height="19.69" as="geometry" />
        </mxCell>
        <mxCell id="57ipUzn8-yiYDWyyxtMg-129" value="" style="ellipse;whiteSpace=wrap;html=1;aspect=fixed;fillColor=#dae8fc;strokeColor=#6c8ebf;" vertex="1" parent="57ipUzn8-yiYDWyyxtMg-139">
          <mxGeometry x="252.255" y="36.99879999999996" width="19.685" height="19.69" as="geometry" />
        </mxCell>
        <mxCell id="57ipUzn8-yiYDWyyxtMg-130" value="" style="ellipse;whiteSpace=wrap;html=1;aspect=fixed;fillColor=#dae8fc;strokeColor=#6c8ebf;" vertex="1" parent="57ipUzn8-yiYDWyyxtMg-139">
          <mxGeometry x="119" y="36.99879999999996" width="19.685" height="19.69" as="geometry" />
        </mxCell>
        <mxCell id="57ipUzn8-yiYDWyyxtMg-131" value="" style="ellipse;whiteSpace=wrap;html=1;aspect=fixed;fillColor=#dae8fc;strokeColor=#6c8ebf;" vertex="1" parent="57ipUzn8-yiYDWyyxtMg-139">
          <mxGeometry x="18.254999999999995" y="36.99879999999996" width="19.685" height="19.69" as="geometry" />
        </mxCell>
        <mxCell id="57ipUzn8-yiYDWyyxtMg-132" value="" style="ellipse;whiteSpace=wrap;html=1;aspect=fixed;fillColor=#dae8fc;strokeColor=#6c8ebf;" vertex="1" parent="57ipUzn8-yiYDWyyxtMg-139">
          <mxGeometry x="152" y="36.99879999999996" width="19.685" height="19.69" as="geometry" />
        </mxCell>
        <mxCell id="57ipUzn8-yiYDWyyxtMg-133" value="&lt;span style=&quot;font-size: 19px;&quot;&gt;4&lt;/span&gt;" style="text;html=1;align=left;verticalAlign=middle;resizable=0;points=[];autosize=1;strokeColor=none;fillColor=none;" vertex="1" parent="57ipUzn8-yiYDWyyxtMg-139">
          <mxGeometry x="302.26" y="24.840000000000032" width="30" height="40" as="geometry" />
        </mxCell>
        <mxCell id="57ipUzn8-yiYDWyyxtMg-135" value="" style="shape=curlyBracket;whiteSpace=wrap;html=1;rounded=1;flipH=1;labelPosition=right;verticalLabelPosition=middle;align=left;verticalAlign=middle;" vertex="1" parent="57ipUzn8-yiYDWyyxtMg-139">
          <mxGeometry x="453" y="24.840000000000032" width="20" height="120" as="geometry" />
        </mxCell>
        <mxCell id="57ipUzn8-yiYDWyyxtMg-136" value="&lt;font style=&quot;font-size: 20px;&quot;&gt;04.12.24&lt;/font&gt;" style="text;html=1;align=center;verticalAlign=middle;resizable=0;points=[];autosize=1;strokeColor=none;fillColor=none;" vertex="1" parent="57ipUzn8-yiYDWyyxtMg-139">
          <mxGeometry x="523" y="64.84000000000003" width="100" height="40" as="geometry" />
        </mxCell>
        <mxCell id="57ipUzn8-yiYDWyyxtMg-137" value="" style="shape=curlyBracket;whiteSpace=wrap;html=1;rounded=1;flipH=1;labelPosition=right;verticalLabelPosition=middle;align=left;verticalAlign=middle;" vertex="1" parent="57ipUzn8-yiYDWyyxtMg-139">
          <mxGeometry x="453" y="144.84000000000003" width="20" height="120" as="geometry" />
        </mxCell>
        <mxCell id="57ipUzn8-yiYDWyyxtMg-138" value="&lt;font style=&quot;font-size: 20px;&quot;&gt;10:27:03&lt;/font&gt;" style="text;html=1;align=center;verticalAlign=middle;resizable=0;points=[];autosize=1;strokeColor=none;fillColor=none;" vertex="1" parent="57ipUzn8-yiYDWyyxtMg-139">
          <mxGeometry x="523" y="184.69000000000005" width="100" height="40" as="geometry" />
        </mxCell>
      </root>
    </mxGraphModel>
  </diagram>
</mxfile>
